# xmcd
#
# Track frame offsets: 
#        150
#        15149
#        32458
#        56296
#        72131
#        91652
#        107696
#        122790
#        141859
#
# Disc length: 2122 seconds
#
# Revision: 2
# Processed by: cddbd v1.5.2PL0 Copyright (c) Steve Scherf et al.
# Submitted via: ExactAudioCopy v0.99pb5
#
DISCID=62084809
DTITLE=The Lonesome Doves - Waiting for Stars
DYEAR=2016
DGENRE=Country
TTITLE0=Love Letters
TTITLE1=Black Water
TTITLE2=Time
TTITLE3=Bluebirds
TTITLE4=When We Were Wild
TTITLE5=Dreamer
TTITLE6=Yesterday's Fool
TTITLE7=Bottles and Cans
TTITLE8=Waiting for Stars
EXTD=
EXTT0=
EXTT1=
EXTT2=
EXTT3=
EXTT4=
EXTT5=
EXTT6=
EXTT7=
EXTT8=
PLAYORDER=
